<?xml version="1.0" encoding="UTF-8"?>
<svg id="Vrstva_1" data-name="Vrstva 1" xmlns="http://www.w3.org/2000/svg" viewBox="0 0 1000 1000">
  <defs>
    <style>
      .cls-1 {
        fill: #9000ff;
      }
    </style>
  </defs>
  <path class="cls-1" d="M866.16,647.13l-116.19-287.65c31.13-33.32,50.26-78.24,50.26-127.7,0-102.73-82.35-186.02-183.94-186.02s-183.94,83.28-183.94,186.02c0,33.31,8.7,64.54,23.86,91.58l-246.42,288.45c-12.32-2.85-25.14-4.4-38.31-4.4C76.77,607.41,0,685.05,0,780.82s76.77,173.41,171.48,173.41c73.77,0,136.65-47.12,160.85-113.21h388.16c19.86,56.38,72.96,96.81,135.52,96.81,79.52,0,143.99-65.19,143.99-145.61s-59.07-139.81-133.84-145.09ZM170.95,849.15c-37.62,0-68.12-30.84-68.12-68.89s30.5-68.89,68.12-68.89,68.12,30.84,68.12,68.89-30.5,68.89-68.12,68.89ZM616.3,143.08c48.42,0,87.67,39.69,87.67,88.66s-39.25,88.66-87.67,88.66-87.67-39.69-87.67-88.66,39.25-88.66,87.67-88.66ZM725.31,731.42h-389.45c-7.27-24.77-19.84-47.21-36.41-65.99l230.26-269.53c25.81,13.96,55.28,21.89,86.59,21.89,13.77,0,27.18-1.58,40.08-4.48l107.77,266.81c-16.49,13.84-29.77,31.39-38.84,51.3ZM856,833.27c-22.59,0-40.91-18.52-40.91-41.37s18.32-41.37,40.91-41.37,40.91,18.52,40.91,41.37-18.32,41.37-40.91,41.37Z"/>
</svg>